<?xml version="1.0" encoding="utf-8"?>
<!-- Generator: Adobe Illustrator 15.0.0, SVG Export Plug-In . SVG Version: 6.00 Build 0)  -->
<!DOCTYPE svg PUBLIC "-//W3C//DTD SVG 1.1//EN" "http://www.w3.org/Graphics/SVG/1.1/DTD/svg11.dtd">
<svg version="1.1" id="Camada_1" xmlns="http://www.w3.org/2000/svg" xmlns:xlink="http://www.w3.org/1999/xlink" x="0px" y="0px"
	 width="127px" height="126.333px" viewBox="0 0 127 126.333" enable-background="new 0 0 127 126.333" xml:space="preserve">
<g>
	<circle fill="#FFFFFF" stroke="#000000" stroke-miterlimit="10" cx="62.75" cy="62.75" r="61.5"/>
	<g>
		<path d="M23.078,45.113c0.101,0.538,0.051,1.585-0.318,2.816c-0.852,2.853-3.289,4.447-6.623,3.452
			c-3.183-0.95-4.674-3.734-3.737-6.872c0.372-1.246,0.884-1.977,1.169-2.268l0.967,0.649c-0.384,0.409-0.774,1.06-1.025,1.901
			c-0.709,2.373,0.338,4.402,2.994,5.195c2.492,0.744,4.495-0.211,5.226-2.659c0.243-0.811,0.319-1.671,0.222-2.273L23.078,45.113z"
			/>
		<path d="M23.588,36.437c2.488,1.293,2.67,3.594,1.832,5.207c-0.938,1.807-3.01,2.532-5.137,1.428
			c-2.238-1.163-2.786-3.336-1.826-5.186C19.461,35.953,21.544,35.375,23.588,36.437z M20.893,41.798
			c1.473,0.765,3.018,0.509,3.639-0.687c0.607-1.168-0.037-2.614-1.553-3.401c-1.14-0.592-2.867-0.766-3.618,0.68
			C18.617,39.822,19.627,41.141,20.893,41.798z"/>
		<path d="M23.381,33.754c-0.627-0.494-1.131-0.869-1.652-1.219l0.756-0.961l1.034,0.713l0.019-0.025
			c-0.322-0.731-0.334-1.857,0.44-2.843c0.648-0.826,2.149-1.72,4.194-0.113l3.55,2.789l-0.852,1.084l-3.438-2.701
			c-0.963-0.755-2.044-1.027-2.848-0.004c-0.553,0.703-0.482,1.654-0.033,2.326c0.097,0.156,0.262,0.326,0.447,0.471l3.586,2.818
			l-0.852,1.084L23.381,33.754z"/>
		<path d="M31.944,29.938c0.481-0.102,1.202-0.383,1.709-0.85c0.726-0.669,0.743-1.345,0.308-1.817
			c-0.446-0.484-0.968-0.472-1.96-0.069c-1.354,0.565-2.325,0.458-2.94-0.209c-0.828-0.898-0.771-2.315,0.416-3.409
			c0.565-0.52,1.199-0.827,1.679-0.907l0.438,0.961c-0.347,0.063-0.931,0.239-1.448,0.717c-0.6,0.552-0.604,1.195-0.222,1.609
			c0.425,0.461,0.938,0.371,1.93-0.009c1.286-0.524,2.238-0.507,3.003,0.323c0.912,0.991,0.777,2.394-0.524,3.593
			c-0.611,0.563-1.324,0.921-1.929,1.052L31.944,29.938z"/>
		<path d="M33.343,18.343l1.058,1.479l1.606-1.149l0.611,0.854l-1.606,1.149l2.381,3.326c0.547,0.765,1.074,1.043,1.699,0.596
			c0.305-0.219,0.466-0.373,0.595-0.542l0.662,0.817c-0.162,0.231-0.452,0.554-0.884,0.864c-0.523,0.374-1.072,0.496-1.549,0.395
			c-0.553-0.125-1.071-0.582-1.592-1.308l-2.408-3.365l-0.956,0.684l-0.61-0.854l0.955-0.685l-0.82-1.146L33.343,18.343z"/>
		<path d="M38.95,19.653c-0.437-0.779-0.825-1.441-1.21-2.034l1.053-0.589l0.789,1.282l0.041-0.023
			c-0.196-1.058,0.229-2.031,1.035-2.482c0.123-0.069,0.227-0.109,0.344-0.157l0.635,1.135c-0.139,0.042-0.262,0.111-0.426,0.203
			c-0.848,0.474-1.098,1.439-0.757,2.434c0.065,0.18,0.166,0.392,0.272,0.583l1.975,3.528l-1.203,0.673L38.95,19.653z"/>
		<path d="M50.836,17.721c0.281,0.749,0.539,1.388,0.793,1.929l-1.145,0.431l-0.51-1.131l-0.029,0.011
			c-0.107,0.693-0.588,1.729-1.85,2.204c-1.115,0.419-2.688,0.292-3.62-2.188l-1.563-4.151l1.291-0.486l1.475,3.916
			c0.508,1.35,1.281,2.114,2.439,1.677c0.866-0.326,1.24-1.154,1.255-1.829c0.007-0.204-0.037-0.455-0.131-0.704l-1.636-4.342
			l1.291-0.486L50.836,17.721z"/>
		<path d="M53.119,9.719l0.377,1.778l1.932-0.41l0.217,1.027l-1.931,0.41l0.849,4c0.195,0.919,0.566,1.385,1.316,1.226
			c0.369-0.078,0.576-0.154,0.763-0.258l0.279,1.014c-0.241,0.147-0.636,0.327-1.156,0.438c-0.629,0.133-1.18,0.026-1.577-0.258
			c-0.455-0.336-0.748-0.962-0.933-1.836l-0.858-4.046l-1.15,0.244l-0.217-1.026l1.148-0.244l-0.293-1.379L53.119,9.719z"/>
		<path d="M64.662,14.021c0.174,2.799-1.705,4.14-3.52,4.252c-2.033,0.126-3.721-1.276-3.869-3.668
			c-0.155-2.518,1.426-4.106,3.505-4.235C62.952,10.234,64.52,11.723,64.662,14.021z M58.678,14.47
			c0.104,1.658,1.119,2.851,2.463,2.767c1.314-0.082,2.223-1.377,2.117-3.082c-0.08-1.282-0.82-2.853-2.446-2.752
			C59.201,11.502,58.59,13.047,58.678,14.47z"/>
		<path d="M66.68,12.852c0.076-0.89,0.126-1.656,0.139-2.363l1.202,0.102l-0.065,1.504l0.047,0.004
			c0.43-0.985,1.328-1.554,2.249-1.476c0.14,0.012,0.249,0.037,0.372,0.063l-0.11,1.295c-0.138-0.043-0.278-0.055-0.466-0.071
			c-0.969-0.083-1.716,0.577-1.991,1.592c-0.046,0.185-0.083,0.417-0.101,0.636l-0.343,4.028l-1.374-0.117L66.68,12.852z"/>
		<path d="M81.195,21.017c-0.539,0.09-1.586,0.016-2.809-0.378c-2.834-0.913-4.377-3.386-3.31-6.698
			c1.019-3.163,3.835-4.594,6.952-3.589c1.238,0.399,1.957,0.927,2.243,1.216l-0.669,0.954c-0.4-0.392-1.044-0.797-1.879-1.066
			c-2.357-0.759-4.41,0.243-5.261,2.883c-0.798,2.477,0.114,4.5,2.547,5.283c0.806,0.259,1.664,0.355,2.269,0.27L81.195,21.017z"/>
		<path d="M89.875,21.721c-1.346,2.461-3.65,2.593-5.246,1.721c-1.787-0.978-2.467-3.064-1.316-5.168
			c1.21-2.213,3.396-2.715,5.224-1.715C90.447,17.604,90.98,19.7,89.875,21.721z M84.572,18.91
			c-0.797,1.457-0.574,3.008,0.608,3.655c1.154,0.631,2.614,0.02,3.435-1.479c0.616-1.127,0.828-2.852-0.603-3.633
			C86.597,16.677,85.256,17.659,84.572,18.91z M91.793,14.786l-2.752,1.048l-0.854-0.466l2.271-1.312L91.793,14.786z"/>
		<path d="M89.76,24.729c0.18,0.458,0.576,1.122,1.121,1.545c0.778,0.605,1.447,0.51,1.842,0.003
			c0.404-0.52,0.307-1.032-0.256-1.944c-0.781-1.242-0.836-2.217-0.279-2.935c0.75-0.965,2.157-1.142,3.432-0.151
			c0.605,0.471,1.014,1.045,1.172,1.505l-0.875,0.59c-0.12-0.331-0.389-0.878-0.946-1.31c-0.644-0.5-1.278-0.398-1.624,0.047
			c-0.385,0.495-0.211,0.987,0.328,1.902c0.729,1.181,0.869,2.124,0.178,3.015c-0.826,1.064-2.232,1.163-3.631,0.077
			c-0.655-0.51-1.127-1.154-1.355-1.728L89.76,24.729z"/>
		<path d="M97.869,25.727c0.609-0.517,1.066-0.945,1.525-1.375l0.779,0.92L99.27,26.12l0.031,0.036
			c0.822-0.143,1.792-0.04,2.611,0.928c0.66,0.777,0.688,1.779,0.219,2.608l0.02,0.024c0.486-0.104,0.928-0.068,1.311,0.02
			c0.557,0.124,1.014,0.373,1.48,0.923c0.658,0.777,1.117,2.338-0.891,4.039l-3.396,2.875l-0.871-1.028l3.265-2.764
			c1.123-0.952,1.426-1.927,0.717-2.764c-0.516-0.609-1.344-0.689-2.008-0.455c-0.195,0.084-0.405,0.2-0.596,0.361l-3.575,3.028
			l-0.87-1.028l3.467-2.937c0.92-0.78,1.233-1.743,0.555-2.544c-0.546-0.646-1.488-0.69-2.155-0.412
			c-0.194,0.062-0.405,0.2-0.585,0.352l-3.479,2.947L93.648,29.3L97.869,25.727z"/>
		<path d="M101.313,39.258l6.573-3.778l0.687,1.195L102,40.453L101.313,39.258z M110.498,35.75
			c-0.408,0.234-0.898,0.136-1.171-0.339c-0.25-0.435-0.088-0.907,0.319-1.142c0.408-0.234,0.918-0.13,1.176,0.318
			C111.073,35.021,110.918,35.507,110.498,35.75z"/>
		<path d="M105.354,47.049c-0.301-0.263-0.859-0.892-1.262-1.828c-0.902-2.101-0.064-4.08,2.065-4.995
			c2.145-0.921,4.344-0.126,5.321,2.147c0.32,0.749,0.418,1.491,0.379,1.917l-1.088,0.126c0.028-0.37-0.002-0.919-0.299-1.61
			c-0.687-1.597-2.252-1.948-3.691-1.33c-1.611,0.692-2.16,2.155-1.566,3.537c0.309,0.719,0.686,1.12,0.998,1.412L105.354,47.049z"
			/>
		<path d="M110.822,53.952c-2.727,0.659-4.374-0.957-4.802-2.724c-0.478-1.979,0.608-3.887,2.938-4.45
			c2.451-0.593,4.293,0.687,4.783,2.713C114.254,51.607,113.061,53.411,110.822,53.952z M109.336,48.137
			c-1.615,0.391-2.611,1.599-2.295,2.909c0.309,1.28,1.744,1.948,3.404,1.546c1.249-0.302,2.666-1.306,2.283-2.889
			C112.35,48.134,110.722,47.802,109.336,48.137z"/>
	</g>
	<g>
		<path d="M103.801,80.618c-0.101-0.538-0.051-1.585,0.318-2.816c0.852-2.853,3.289-4.447,6.623-3.452
			c3.182,0.951,4.674,3.734,3.736,6.873c-0.372,1.246-0.884,1.977-1.168,2.268l-0.967-0.648c0.383-0.409,0.774-1.061,1.025-1.902
			c0.709-2.372-0.338-4.401-2.994-5.194c-2.493-0.744-4.495,0.212-5.227,2.659c-0.242,0.811-0.318,1.67-0.221,2.272L103.801,80.618z
			"/>
		<path d="M103.291,89.295c-2.488-1.293-2.67-3.594-1.832-5.207c0.938-1.807,3.01-2.532,5.137-1.428
			c2.238,1.163,2.785,3.337,1.826,5.186C107.418,89.779,105.335,90.356,103.291,89.295z M105.986,83.934
			c-1.473-0.766-3.019-0.509-3.639,0.688c-0.607,1.167,0.037,2.613,1.553,3.4c1.139,0.592,2.867,0.766,3.618-0.68
			C108.262,85.91,107.252,84.591,105.986,83.934z"/>
		<path d="M103.497,91.977c0.628,0.494,1.131,0.869,1.653,1.22l-0.756,0.962l-1.034-0.714l-0.019,0.024
			c0.321,0.732,0.334,1.858-0.44,2.844c-0.649,0.826-2.149,1.721-4.194,0.113l-3.55-2.789l0.852-1.084l3.438,2.701
			c0.963,0.755,2.044,1.027,2.848,0.004c0.553-0.702,0.482-1.654,0.033-2.326c-0.098-0.155-0.262-0.325-0.447-0.471l-3.587-2.817
			l0.853-1.085L103.497,91.977z"/>
		<path d="M94.935,95.793c-0.481,0.103-1.202,0.383-1.709,0.851c-0.726,0.669-0.743,1.345-0.308,1.817
			c0.445,0.483,0.968,0.472,1.96,0.068c1.354-0.564,2.325-0.459,2.94,0.21c0.828,0.898,0.77,2.315-0.416,3.409
			c-0.566,0.52-1.199,0.826-1.68,0.907l-0.438-0.961c0.348-0.063,0.931-0.239,1.449-0.717c0.6-0.552,0.604-1.194,0.222-1.609
			c-0.425-0.462-0.938-0.371-1.93,0.009c-1.286,0.524-2.239,0.508-3.003-0.322c-0.912-0.991-0.778-2.395,0.523-3.594
			c0.611-0.563,1.325-0.921,1.93-1.052L94.935,95.793z"/>
		<path d="M93.536,107.389l-1.058-1.479l-1.606,1.149l-0.611-0.854l1.606-1.148l-2.381-3.326c-0.548-0.765-1.074-1.043-1.699-0.596
			c-0.305,0.219-0.466,0.371-0.596,0.541l-0.661-0.817c0.162-0.231,0.451-0.554,0.884-0.864c0.523-0.374,1.072-0.496,1.549-0.395
			c0.552,0.125,1.071,0.582,1.592,1.308l2.408,3.364l0.955-0.684l0.611,0.854l-0.956,0.685l0.821,1.146L93.536,107.389z"/>
		<path d="M87.929,106.078c0.437,0.779,0.825,1.441,1.21,2.034l-1.053,0.589l-0.789-1.282l-0.041,0.022
			c0.196,1.058-0.229,2.031-1.035,2.482c-0.123,0.069-0.227,0.109-0.344,0.156l-0.635-1.135c0.139-0.041,0.262-0.11,0.425-0.202
			c0.848-0.474,1.099-1.439,0.758-2.435c-0.065-0.18-0.166-0.392-0.273-0.583l-1.974-3.528l1.203-0.674L87.929,106.078z"/>
		<path d="M76.043,108.01c-0.281-0.748-0.539-1.388-0.793-1.929l1.145-0.431l0.51,1.131l0.029-0.011
			c0.106-0.693,0.588-1.729,1.85-2.204c1.115-0.419,2.687-0.291,3.62,2.188l1.563,4.151l-1.291,0.485l-1.475-3.916
			c-0.509-1.35-1.282-2.113-2.44-1.677c-0.865,0.325-1.24,1.153-1.254,1.829c-0.008,0.203,0.036,0.454,0.131,0.703l1.635,4.342
			l-1.29,0.486L76.043,108.01z"/>
		<path d="M73.76,116.012l-0.377-1.777l-1.932,0.41l-0.217-1.027l1.931-0.409l-0.849-4c-0.195-0.919-0.566-1.386-1.317-1.226
			c-0.368,0.077-0.576,0.154-0.762,0.258l-0.279-1.015c0.241-0.147,0.635-0.327,1.155-0.438c0.629-0.133,1.18-0.026,1.578,0.259
			c0.455,0.336,0.748,0.962,0.933,1.836l0.858,4.045l1.15-0.243l0.217,1.026l-1.148,0.244l0.293,1.379L73.76,116.012z"/>
		<path d="M62.217,111.711c-0.174-2.799,1.705-4.141,3.52-4.252c2.033-0.126,3.721,1.276,3.869,3.668
			c0.154,2.518-1.426,4.107-3.506,4.236C63.927,115.498,62.359,114.009,62.217,111.711z M68.2,111.262
			c-0.103-1.658-1.118-2.851-2.462-2.768c-1.314,0.082-2.223,1.378-2.117,3.082c0.079,1.283,0.82,2.854,2.446,2.753
			C67.678,114.229,68.289,112.685,68.2,111.262z"/>
		<path d="M60.199,112.88c-0.076,0.89-0.126,1.656-0.139,2.362l-1.203-0.102l0.066-1.504l-0.047-0.004
			c-0.431,0.985-1.328,1.554-2.249,1.475c-0.14-0.012-0.249-0.036-0.372-0.063l0.11-1.296c0.138,0.044,0.278,0.056,0.466,0.071
			c0.968,0.082,1.715-0.578,1.99-1.592c0.047-0.186,0.083-0.418,0.102-0.637l0.343-4.027l1.374,0.117L60.199,112.88z"/>
		<path d="M45.683,104.715c0.54-0.09,1.586-0.016,2.81,0.378c2.834,0.913,4.376,3.386,3.31,6.698
			c-1.019,3.162-3.835,4.594-6.953,3.59c-1.237-0.399-1.957-0.928-2.242-1.217l0.669-0.953c0.4,0.392,1.044,0.797,1.879,1.066
			c2.357,0.759,4.41-0.243,5.26-2.885c0.799-2.477-0.114-4.499-2.547-5.282c-0.805-0.259-1.664-0.354-2.268-0.27L45.683,104.715z"/>
		<path d="M37.004,104.011c1.346-2.461,3.65-2.593,5.246-1.722c1.786,0.979,2.467,3.064,1.316,5.168
			c-1.211,2.214-3.396,2.715-5.225,1.715C36.432,108.127,35.898,106.031,37.004,104.011z M42.307,106.822
			c0.797-1.457,0.574-3.009-0.608-3.655c-1.155-0.632-2.615-0.02-3.435,1.479c-0.617,1.127-0.828,2.852,0.602,3.633
			C40.282,109.055,41.623,108.072,42.307,106.822z M35.086,110.945l2.752-1.049l0.853,0.467l-2.271,1.312L35.086,110.945z"/>
		<path d="M37.119,101.002c-0.18-0.457-0.576-1.122-1.121-1.545c-0.779-0.605-1.448-0.511-1.842-0.003
			c-0.404,0.519-0.307,1.032,0.256,1.944c0.781,1.241,0.836,2.217,0.279,2.935c-0.75,0.965-2.157,1.142-3.432,0.151
			c-0.606-0.471-1.014-1.045-1.172-1.505l0.875-0.59c0.119,0.331,0.389,0.878,0.946,1.31c0.644,0.5,1.278,0.398,1.624-0.047
			c0.385-0.495,0.211-0.987-0.328-1.902c-0.729-1.181-0.87-2.123-0.178-3.014c0.826-1.064,2.232-1.163,3.631-0.077
			c0.655,0.51,1.127,1.153,1.355,1.728L37.119,101.002z"/>
		<path d="M29.01,100.005c-0.609,0.517-1.066,0.945-1.525,1.374l-0.779-0.92l0.904-0.848l-0.031-0.036
			c-0.822,0.144-1.792,0.04-2.612-0.928c-0.659-0.776-0.687-1.78-0.218-2.608l-0.02-0.023c-0.487,0.104-0.929,0.067-1.311-0.02
			c-0.557-0.124-1.014-0.373-1.48-0.923c-0.658-0.777-1.117-2.338,0.891-4.039l3.396-2.876l0.87,1.028l-3.264,2.765
			c-1.123,0.951-1.426,1.927-0.717,2.764c0.516,0.609,1.344,0.689,2.008,0.455c0.195-0.084,0.404-0.199,0.596-0.361l3.574-3.028
			l0.871,1.028l-3.467,2.937c-0.92,0.779-1.234,1.743-0.555,2.544c0.546,0.646,1.488,0.689,2.154,0.412
			c0.195-0.062,0.406-0.199,0.586-0.352l3.479-2.947l0.871,1.029L29.01,100.005z"/>
		<path d="M25.566,86.473l-6.573,3.778l-0.688-1.194l6.573-3.778L25.566,86.473z M16.381,89.982
			c0.408-0.234,0.897-0.137,1.171,0.338c0.25,0.436,0.088,0.908-0.319,1.142c-0.408,0.234-0.919,0.131-1.177-0.317
			C15.806,90.71,15.96,90.224,16.381,89.982z"/>
		<path d="M21.525,78.683c0.3,0.263,0.859,0.892,1.262,1.828c0.902,2.101,0.064,4.08-2.066,4.995
			c-2.145,0.921-4.343,0.127-5.32-2.147c-0.32-0.749-0.418-1.491-0.379-1.917l1.088-0.126c-0.028,0.37,0.002,0.919,0.299,1.61
			c0.687,1.598,2.252,1.948,3.691,1.33c1.611-0.692,2.16-2.155,1.566-3.537c-0.309-0.719-0.686-1.12-0.998-1.412L21.525,78.683z"/>
		<path d="M16.057,71.779c2.727-0.658,4.374,0.957,4.802,2.725c0.478,1.979-0.608,3.887-2.938,4.45
			c-2.451,0.593-4.293-0.688-4.783-2.713C12.625,74.125,13.818,72.32,16.057,71.779z M17.543,77.594
			c1.614-0.39,2.611-1.598,2.295-2.908c-0.31-1.279-1.744-1.947-3.404-1.546c-1.249,0.302-2.667,1.306-2.283,2.89
			C14.529,77.598,16.156,77.93,17.543,77.594z"/>
	</g>
	<circle cx="62.75" cy="62.75" r="37.605"/>
	<circle cx="112.107" cy="63.533" r="5.484"/>
	<circle cx="13.393" cy="63.533" r="5.484"/>
	<g>
		<path stroke="#FFFFFF" stroke-miterlimit="10" d="M36.457,29.634c0.126,0.45,0.193,0.902,0.236,1.354
			c-0.219,0.307-0.332,0.7-0.254,1.157c1.648,9.551,4.163,18.862,7.998,27.775c1.781,4.137,4.33,7.911,7.229,11.343
			c1.429,1.69,3.065,3.128,4.656,4.654c0.284,0.273,0.563,0.551,0.842,0.83c-1.024,0.021-1.962,0.21-2.643,0.615
			c-0.88,0.524-0.907,1.6-0.301,2.333c1.667,2.017,4.058,3.335,6.048,5.002c2.367,1.983,4.702,4.003,7.072,5.983
			c2.356,1.97,4.451,4.24,6.613,6.414c1.596,1.604,3.128,3.257,5.324,3.99c1.075,0.358,2.142-0.779,1.828-1.828
			c-0.399-1.334-1.211-2.325-2.09-3.383c-1.114-1.344-1.986-2.922-2.807-4.457c-1.446-2.708-2.746-5.624-3.975-8.479
			c3.026-1.616,5.711-3.531,7.245-6.611c1.283,0.523,2.45,1.776,3.476,2.539c1.578,1.177,3.42,1.963,4.959,3.224
			c3.049,2.495,5.682,5.431,8.832,7.812c1.322,0.998,2.578-0.849,2.033-2.033c-1.482-3.215-3.912-5.834-5.942-8.699
			c-2.09-2.953-4.29-5.833-6.189-8.917c-2.39-3.88-4.933-9.59-9.763-10.864c-0.859-0.227-1.513,0.285-1.828,1.037
			c-0.289,0.692-0.344,1.394-0.315,2.099c-0.184-0.472-0.351-0.898-0.507-1.18c-1.27-2.284-2.641-4.425-4.303-6.444
			c-3.518-4.277-7.254-8.395-10.879-12.583c-3.401-3.927-6.995-7.672-11.008-10.981c-3.164-2.611-6.113-5.507-10.387-5.952
			c-0.652-0.068-1.266,0.504-1.432,1.09C35.924,27.551,36.162,28.579,36.457,29.634z"/>
		<path fill="#FFFFFF" stroke="#FFFFFF" stroke-miterlimit="10" d="M38.783,27.84c0.165,0.568,0.408,1.139,0.521,1.606
			c0.272,1.118-0.109,2.247,0.211,3.395c0.102,0.357,0.074,0.673-0.037,0.939c1.094,5.69,2.498,11.342,4.385,16.823
			c2.162-0.229,4.209-1.702,6.038-2.734c2.258-1.274,4.257-3.148,5.836-5.203c-2.331-2.654-4.739-5.24-7.358-7.608
			C45.75,32.682,42.419,29.006,38.783,27.84z"/>
	</g>
	<polygon fill="#FFFFFF" points="33.697,60.063 34.622,61.935 36.688,62.235 35.193,63.693 35.547,65.751 33.697,64.779 
		31.85,65.751 32.202,63.693 30.707,62.235 32.773,61.935 	"/>
	<polygon fill="#FFFFFF" points="73.653,34.481 72.793,35.873 73.452,37.37 71.862,36.982 70.643,38.071 70.52,36.439 
		69.107,35.615 70.621,34.995 70.969,33.397 72.025,34.645 	"/>
	<polygon fill="#FFFFFF" points="82.793,48.456 83.521,49.931 85.15,50.168 83.972,51.316 84.25,52.938 82.793,52.172 
		81.337,52.938 81.615,51.316 80.438,50.168 82.064,49.931 	"/>
	<polygon fill="#FFFFFF" points="40.488,77.309 38.935,77.689 38.367,79.184 37.526,77.824 35.93,77.746 36.963,76.525 
		36.543,74.982 38.023,75.589 39.359,74.713 39.242,76.307 	"/>
	<polygon fill="#FFFFFF" points="36.832,47.277 35.359,47.037 34.327,48.113 34.102,46.639 32.758,45.989 34.09,45.318 
		34.292,43.841 35.342,44.901 36.811,44.637 36.127,45.962 	"/>
</g>
</svg>
